<?xml version="1.0" encoding="utf-8"?>
<!-- Generator: Adobe Illustrator 15.0.2, SVG Export Plug-In . SVG Version: 6.00 Build 0)  -->
<!DOCTYPE svg PUBLIC "-//W3C//DTD SVG 1.1//EN" "http://www.w3.org/Graphics/SVG/1.1/DTD/svg11.dtd">
<svg version="1.1" id="Ebene_2" xmlns="http://www.w3.org/2000/svg" xmlns:xlink="http://www.w3.org/1999/xlink" x="0px" y="0px"
	 width="213.333px" height="221.667px" viewBox="0 0 213.333 221.667" enable-background="new 0 0 213.333 221.667"
	 xml:space="preserve">
<g id="Ebene_2">
	<g>
		<path fill="#FF6634" stroke="#00534F" stroke-linecap="round" stroke-linejoin="bevel" stroke-miterlimit="10" d="M49.555,218.938
			c0,0-33.337-165.599-36.652-181.072c-0.819-3.824-3.471-2.27-3.569-3.949c-0.5-8.5-3.315-6.65-3.235-9.053
			c0.11-3.322,3.531-3.039,3.457-4.444c-0.064-1.233-2.472-3.511-2.472-4.878c0-2.875,2.571-3.318,3-5.75
			c0.375-2.125,1.125-5.375,1.125-5.375s2.125,2.875,2.875,4.375c0.619,1.238,2.747,2.506,3.5,3.875
			c0.724,1.316,0.625,6.125,0.625,6.125s2.899,1.695,2.705,2.616c-6.955,32.884,63.677,15.108,79.506,21.728
			c7.248,3.031,7.792,14.073,9.414,19.156c6.5,20.375,31.557,15.507,43,17.375c4.493,0.734,17.325,7.198,25.834,14.833
			c6.5,5.833,26.937,12.833,26.937,12.833c0,0-2.604,2.667-8.271,3c-7.399,0.435-19.203-6.865-26-7.833
			c-6.037-0.859-23.592-0.732-24.001,3.352c-0.144,1.434,21.669,10.452,26.835,12.982c4.803,2.353,10.345,10.486,18.166,15
			c6.411,3.7,15.5,6,15.5,6s-5.895,2.604-10.624,1.573c-5.943-1.295-17.664-4.74-23.709-4.74c-10.667,0-29.833,4.5-42.958,3.259
			c-7.28-0.688-22.271-10.88-32.099-12.346c-6.926-1.033-18.277,3.254-27.943,3.087c-7.216-0.125-28.847-1.111-28.847-1.111
			l18.271,89.383H49.555z"/>
	</g>
</g>
</svg>
